STARTFONT 2.1
FONT -Monotype-Nimrod-Regular-R-Normal--17-120-100-100-P-93-iso8859-5
SIZE 12 100 100
FONTBOUNDINGBOX 20 21 -1 -4

STARTPROPERTIES 24
FOUNDRY "Monotype"
FAMILY_NAME "Nimrod"
WEIGHT_NAME "Regular"
SLANT "R"
SETWIDTH_NAME "Normal"
ADD_STYLE_NAME ""
PIXEL_SIZE 17
POINT_SIZE 120
RESOLUTION_X 100
RESOLUTION_Y 100
SPACING "P"
AVERAGE_WIDTH 93
CHARSET_REGISTRY "iso8859"
CHARSET_ENCODING "5"
FACE_NAME "Nimrod ISO Latin Cyrillic"
_DEC_DEVICE_FONTNAMES "PS=nimrod-latcyrillic"
COPYRIGHT "Copyright (c) 1994 Monotype Typography Ltd."
CAP_HEIGHT 15
X_HEIGHT 11
WEIGHT 10
QUAD_WIDTH 11
DEFAULT_CHAR 160
FONT_DESCENT 4
FONT_ASCENT 17
ENDPROPERTIES

CHARS 191

STARTCHAR space
ENCODING 32
SWIDTH 250 0
DWIDTH 4 0
BBX 0 0 0 0
BITMAP
ENDCHAR

STARTCHAR exclam
ENCODING 33
SWIDTH 281 0
DWIDTH 5 0
BBX 2 13 2 0
BITMAP
C0
C0
C0
C0
C0
C0
C0
C0
80
00
00
C0
C0
ENDCHAR

STARTCHAR quotedbl
ENCODING 34
SWIDTH 406 0
DWIDTH 7 0
BBX 5 5 1 8
BITMAP
D8
D8
D8
D8
48
ENDCHAR

STARTCHAR numbersign
ENCODING 35
SWIDTH 667 0
DWIDTH 11 0
BBX 10 13 1 0
BITMAP
1080
1080
1080
1080
7FC0
2100
2100
2100
FF80
4200
4200
4200
4200
ENDCHAR

STARTCHAR dollar
ENCODING 36
SWIDTH 500 0
DWIDTH 9 0
BBX 7 15 1 -2
BITMAP
10
7C
D6
D2
D2
F0
78
1C
1E
96
96
D6
7C
10
10
ENDCHAR

STARTCHAR percent
ENCODING 37
SWIDTH 1000 0
DWIDTH 17 0
BBX 11 13 3 0
BITMAP
6080
B080
B100
B100
B200
B200
64C0
0960
0960
1160
1160
2160
20C0
ENDCHAR

STARTCHAR ampersand
ENCODING 38
SWIDTH 781 0
DWIDTH 13 0
BBX 13 13 0 0
BITMAP
0E00
1B00
3300
3300
3200
1C00
3C78
6630
C620
C340
C188
61C8
3E70
ENDCHAR

STARTCHAR quoteright
ENCODING 39
SWIDTH 281 0
DWIDTH 5 0
BBX 2 4 2 9
BITMAP
C0
C0
40
80
ENDCHAR

STARTCHAR parenleft
ENCODING 40
SWIDTH 354 0
DWIDTH 6 0
BBX 5 16 1 -3
BITMAP
08
10
20
60
60
C0
C0
C0
C0
C0
C0
60
60
20
10
08
ENDCHAR

STARTCHAR parenright
ENCODING 41
SWIDTH 354 0
DWIDTH 6 0
BBX 5 16 1 -3
BITMAP
80
40
20
30
30
18
18
18
18
18
18
30
30
20
40
80
ENDCHAR

STARTCHAR asterisk
ENCODING 42
SWIDTH 469 0
DWIDTH 8 0
BBX 6 7 1 6
BITMAP
30
30
B4
FC
30
CC
CC
ENDCHAR

STARTCHAR plus
ENCODING 43
SWIDTH 667 0
DWIDTH 11 0
BBX 9 9 1 1
BITMAP
0800
0800
0800
0800
FF80
0800
0800
0800
0800
ENDCHAR

STARTCHAR comma
ENCODING 44
SWIDTH 281 0
DWIDTH 5 0
BBX 2 4 2 -2
BITMAP
C0
C0
40
80
ENDCHAR

STARTCHAR minus
ENCODING 45
SWIDTH 667 0
DWIDTH 11 0
BBX 9 1 1 5
BITMAP
FF80
ENDCHAR

STARTCHAR period
ENCODING 46
SWIDTH 281 0
DWIDTH 5 0
BBX 2 2 2 0
BITMAP
C0
C0
ENDCHAR

STARTCHAR slash
ENCODING 47
SWIDTH 510 0
DWIDTH 9 0
BBX 8 13 1 0
BITMAP
03
02
04
04
08
08
08
10
10
20
20
40
C0
ENDCHAR

STARTCHAR zero
ENCODING 48
SWIDTH 500 0
DWIDTH 9 0
BBX 8 13 1 0
BITMAP
3C
66
66
C3
C3
C3
C3
C3
C3
C3
66
66
3C
ENDCHAR

STARTCHAR one
ENCODING 49
SWIDTH 500 0
DWIDTH 9 0
BBX 6 13 2 0
BITMAP
10
F0
30
30
30
30
30
30
30
30
30
30
FC
ENDCHAR

STARTCHAR two
ENCODING 50
SWIDTH 500 0
DWIDTH 9 0
BBX 7 13 1 0
BITMAP
38
4C
C6
86
06
0C
0C
08
10
20
42
FE
FC
ENDCHAR

STARTCHAR three
ENCODING 51
SWIDTH 500 0
DWIDTH 9 0
BBX 7 13 1 0
BITMAP
7C
CE
86
06
0C
38
0C
06
06
06
86
CE
7C
ENDCHAR

STARTCHAR four
ENCODING 52
SWIDTH 500 0
DWIDTH 9 0
BBX 8 13 1 0
BITMAP
04
04
0C
1C
1C
2C
2C
4C
4C
FF
0C
0C
3F
ENDCHAR

STARTCHAR five
ENCODING 53
SWIDTH 500 0
DWIDTH 9 0
BBX 7 13 1 0
BITMAP
7C
78
40
40
78
CC
06
06
06
46
C6
8C
78
ENDCHAR

STARTCHAR six
ENCODING 54
SWIDTH 500 0
DWIDTH 9 0
BBX 8 13 1 0
BITMAP
1E
23
61
40
DC
E6
C3
C3
C3
C3
C3
66
3C
ENDCHAR

STARTCHAR seven
ENCODING 55
SWIDTH 500 0
DWIDTH 9 0
BBX 7 13 1 0
BITMAP
7E
FE
86
84
0C
0C
08
18
18
18
30
30
30
ENDCHAR

STARTCHAR eight
ENCODING 56
SWIDTH 500 0
DWIDTH 9 0
BBX 8 13 1 0
BITMAP
3C
66
C3
C3
C3
66
3C
66
C3
C3
C3
66
3C
ENDCHAR

STARTCHAR nine
ENCODING 57
SWIDTH 500 0
DWIDTH 9 0
BBX 8 13 1 0
BITMAP
3C
66
C3
C3
C3
C3
C3
67
3B
02
86
C4
78
ENDCHAR

STARTCHAR colon
ENCODING 58
SWIDTH 281 0
DWIDTH 5 0
BBX 2 9 2 0
BITMAP
C0
C0
00
00
00
00
00
C0
C0
ENDCHAR

STARTCHAR semicolon
ENCODING 59
SWIDTH 281 0
DWIDTH 5 0
BBX 2 11 2 -2
BITMAP
C0
C0
00
00
00
00
00
C0
C0
40
80
ENDCHAR

STARTCHAR less
ENCODING 60
SWIDTH 667 0
DWIDTH 11 0
BBX 9 9 1 1
BITMAP
0080
0380
0C00
3000
C000
3000
0C00
0380
0080
ENDCHAR

STARTCHAR equal
ENCODING 61
SWIDTH 667 0
DWIDTH 11 0
BBX 9 5 1 3
BITMAP
FF80
0000
0000
0000
FF80
ENDCHAR

STARTCHAR greater
ENCODING 62
SWIDTH 667 0
DWIDTH 11 0
BBX 9 9 1 1
BITMAP
8000
E000
1800
0600
0180
0600
1800
E000
8000
ENDCHAR

STARTCHAR question
ENCODING 63
SWIDTH 448 0
DWIDTH 8 0
BBX 6 13 1 0
BITMAP
78
9C
CC
4C
18
10
30
20
20
00
00
30
30
ENDCHAR

STARTCHAR at
ENCODING 64
SWIDTH 917 0
DWIDTH 16 0
BBX 14 16 1 -3
BITMAP
07C0
1830
2008
4008
43A4
84E4
8CC4
8CC4
98C8
9988
9990
4EE0
4004
2008
1830
07C0
ENDCHAR

STARTCHAR A
ENCODING 65
SWIDTH 802 0
DWIDTH 14 0
BBX 13 13 1 0
BITMAP
0100
0300
0380
0580
04C0
08C0
08C0
1060
1FE0
2060
2030
6030
F078
ENDCHAR

STARTCHAR B
ENCODING 66
SWIDTH 729 0
DWIDTH 12 0
BBX 12 13 0 0
BITMAP
FF80
30C0
3060
3060
3060
30C0
3FC0
3060
3030
3030
3030
3060
FFC0
ENDCHAR

STARTCHAR C
ENCODING 67
SWIDTH 719 0
DWIDTH 12 0
BBX 10 13 1 0
BITMAP
0F80
30C0
6040
6040
C000
C000
C000
C000
C000
6040
6040
3080
0F00
ENDCHAR

STARTCHAR D
ENCODING 68
SWIDTH 771 0
DWIDTH 13 0
BBX 12 13 0 0
BITMAP
FF80
30C0
3060
3060
3030
3030
3030
3030
3030
3060
3060
30C0
FF80
ENDCHAR

STARTCHAR E
ENCODING 69
SWIDTH 719 0
DWIDTH 12 0
BBX 11 13 0 0
BITMAP
FFE0
3060
3020
3020
3100
3100
3F00
3100
3120
3020
3020
3060
FFE0
ENDCHAR

STARTCHAR F
ENCODING 70
SWIDTH 667 0
DWIDTH 11 0
BBX 11 13 0 0
BITMAP
FFE0
3060
3020
3020
3100
3100
3F00
3100
3100
3000
3000
3000
FC00
ENDCHAR

STARTCHAR G
ENCODING 71
SWIDTH 792 0
DWIDTH 13 0
BBX 13 13 1 0
BITMAP
0FC0
3060
6020
6020
C000
C000
C000
C1F8
C060
6060
6060
3040
0F80
ENDCHAR

STARTCHAR H
ENCODING 72
SWIDTH 813 0
DWIDTH 14 0
BBX 14 13 0 0
BITMAP
FCFC
3030
3030
3030
3030
3030
3FF0
3030
3030
3030
3030
3030
FCFC
ENDCHAR

STARTCHAR I
ENCODING 73
SWIDTH 385 0
DWIDTH 7 0
BBX 6 13 1 0
BITMAP
FC
30
30
30
30
30
30
30
30
30
30
30
FC
ENDCHAR

STARTCHAR J
ENCODING 74
SWIDTH 573 0
DWIDTH 10 0
BBX 10 13 0 0
BITMAP
0FC0
0300
0300
0300
0300
0300
0300
0300
0300
6300
C200
4600
3C00
ENDCHAR

STARTCHAR K
ENCODING 75
SWIDTH 781 0
DWIDTH 13 0
BBX 13 13 0 0
BITMAP
FCF8
3060
3040
3080
3100
3200
3600
3B00
3180
30C0
3060
3030
FC78
ENDCHAR

STARTCHAR L
ENCODING 76
SWIDTH 677 0
DWIDTH 12 0
BBX 11 13 1 0
BITMAP
FC00
3000
3000
3000
3000
3000
3000
3000
3020
3020
3020
3060
FFE0
ENDCHAR

STARTCHAR M
ENCODING 77
SWIDTH 979 0
DWIDTH 17 0
BBX 16 13 1 0
BITMAP
F81F
381C
2C2C
2C2C
2C2C
264C
264C
264C
234C
238C
238C
210C
F93F
ENDCHAR

STARTCHAR N
ENCODING 78
SWIDTH 823 0
DWIDTH 14 0
BBX 14 13 0 0
BITMAP
F07C
3810
3810
2C10
2610
2610
2310
2190
2190
20D0
2070
2070
F830
ENDCHAR

STARTCHAR O
ENCODING 79
SWIDTH 792 0
DWIDTH 13 0
BBX 12 13 1 0
BITMAP
0F00
30C0
6060
6060
C030
C030
C030
C030
C030
6060
6060
30C0
0F00
ENDCHAR

STARTCHAR P
ENCODING 80
SWIDTH 667 0
DWIDTH 11 0
BBX 11 13 0 0
BITMAP
FF80
30C0
3060
3060
3060
30C0
3F80
3000
3000
3000
3000
3000
FC00
ENDCHAR

STARTCHAR Q
ENCODING 81
SWIDTH 792 0
DWIDTH 13 0
BBX 13 15 1 -2
BITMAP
0F00
30C0
6060
6060
C030
C030
C030
C030
DC30
7360
6360
31C0
0F80
00C0
0038
ENDCHAR

STARTCHAR R
ENCODING 82
SWIDTH 729 0
DWIDTH 12 0
BBX 12 13 0 0
BITMAP
FF80
30C0
3060
3060
3060
30C0
3F80
3180
3180
30C0
30C0
3060
FC70
ENDCHAR

STARTCHAR S
ENCODING 83
SWIDTH 615 0
DWIDTH 10 0
BBX 9 13 1 0
BITMAP
3F00
6180
C080
C080
E000
7800
1E00
0700
0380
8180
8180
C300
7E00
ENDCHAR

STARTCHAR T
ENCODING 84
SWIDTH 698 0
DWIDTH 12 0
BBX 10 13 1 0
BITMAP
FFC0
CCC0
8C40
8C40
0C00
0C00
0C00
0C00
0C00
0C00
0C00
0C00
3F00
ENDCHAR

STARTCHAR U
ENCODING 85
SWIDTH 771 0
DWIDTH 13 0
BBX 13 13 0 0
BITMAP
FCF8
3020
3020
3020
3020
3020
3020
3020
3020
3020
3020
1840
0F80
ENDCHAR

STARTCHAR V
ENCODING 86
SWIDTH 792 0
DWIDTH 13 0
BBX 12 13 1 0
BITMAP
F0F0
6060
6040
3040
3080
3080
1880
1900
1900
0D00
0E00
0600
0400
ENDCHAR

STARTCHAR W
ENCODING 87
SWIDTH 1010 0
DWIDTH 17 0
BBX 16 13 1 0
BITMAP
F3CF
6186
6184
6184
62C4
32C8
32C8
32C8
3450
1C70
1C70
0820
0820
ENDCHAR

STARTCHAR X
ENCODING 88
SWIDTH 729 0
DWIDTH 12 0
BBX 12 13 0 0
BITMAP
F9F0
6060
3040
1880
1900
0E00
0600
0700
0980
1180
20C0
6060
F9F0
ENDCHAR

STARTCHAR Y
ENCODING 89
SWIDTH 729 0
DWIDTH 12 0
BBX 12 13 0 0
BITMAP
F8F0
6020
3040
3040
1880
1900
0D00
0600
0600
0600
0600
0600
1F80
ENDCHAR

STARTCHAR Z
ENCODING 90
SWIDTH 625 0
DWIDTH 11 0
BBX 9 13 1 0
BITMAP
FF80
C300
8300
8600
0600
0C00
0C00
1800
3080
3080
6080
6180
FF80
ENDCHAR

STARTCHAR bracketleft
ENCODING 91
SWIDTH 344 0
DWIDTH 6 0
BBX 4 16 1 -3
BITMAP
F0
C0
C0
C0
C0
C0
C0
C0
C0
C0
C0
C0
C0
C0
C0
F0
ENDCHAR

STARTCHAR backslash
ENCODING 92
SWIDTH 510 0
DWIDTH 9 0
BBX 9 14 0 0
BITMAP
C000
4000
2000
2000
1000
1000
0800
0800
0400
0400
0200
0200
0100
0180
ENDCHAR

STARTCHAR bracketright
ENCODING 93
SWIDTH 344 0
DWIDTH 6 0
BBX 4 16 1 -3
BITMAP
F0
30
30
30
30
30
30
30
30
30
30
30
30
30
30
F0
ENDCHAR

STARTCHAR asciicircum
ENCODING 94
SWIDTH 469 0
DWIDTH 8 0
BBX 7 6 1 7
BITMAP
10
10
28
28
44
C6
ENDCHAR

STARTCHAR underscore
ENCODING 95
SWIDTH 500 0
DWIDTH 9 0
BBX 9 1 0 -4
BITMAP
FF80
ENDCHAR

STARTCHAR quoteleft
ENCODING 96
SWIDTH 281 0
DWIDTH 5 0
BBX 2 4 2 8
BITMAP
40
80
C0
C0
ENDCHAR

STARTCHAR a
ENCODING 97
SWIDTH 563 0
DWIDTH 10 0
BBX 9 9 1 0
BITMAP
3E00
6300
6300
0700
3B00
6300
C300
C700
7980
ENDCHAR

STARTCHAR b
ENCODING 98
SWIDTH 594 0
DWIDTH 10 0
BBX 10 13 -1 0
BITMAP
F000
3000
3000
3000
3700
3980
30C0
30C0
30C0
30C0
30C0
3180
2F00
ENDCHAR

STARTCHAR c
ENCODING 99
SWIDTH 510 0
DWIDTH 9 0
BBX 7 9 1 0
BITMAP
3C
66
C2
C0
C0
C0
C2
62
3C
ENDCHAR

STARTCHAR d
ENCODING 100
SWIDTH 594 0
DWIDTH 10 0
BBX 9 13 1 0
BITMAP
0F00
0300
0300
0300
3B00
6700
C300
C300
C300
C300
C300
6700
3B80
ENDCHAR

STARTCHAR e
ENCODING 101
SWIDTH 521 0
DWIDTH 9 0
BBX 7 9 1 0
BITMAP
38
64
C6
C6
FE
C0
C0
62
3C
ENDCHAR

STARTCHAR f
ENCODING 102
SWIDTH 344 0
DWIDTH 6 0
BBX 8 13 0 0
BITMAP
0E
13
31
30
FC
30
30
30
30
30
30
30
FC
ENDCHAR

STARTCHAR g
ENCODING 103
SWIDTH 552 0
DWIDTH 9 0
BBX 8 12 1 -3
BITMAP
3B
6C
C6
C6
C6
6C
B8
C0
7C
C6
C6
7C
ENDCHAR

STARTCHAR h
ENCODING 104
SWIDTH 646 0
DWIDTH 11 0
BBX 9 13 1 0
BITMAP
E000
6000
6000
6000
6E00
7300
6300
6300
6300
6300
6300
6300
F780
ENDCHAR

STARTCHAR i
ENCODING 105
SWIDTH 365 0
DWIDTH 6 0
BBX 4 13 1 0
BITMAP
60
60
00
00
E0
60
60
60
60
60
60
60
F0
ENDCHAR

STARTCHAR j
ENCODING 106
SWIDTH 323 0
DWIDTH 5 0
BBX 5 16 -1 -3
BITMAP
18
18
00
00
38
18
18
18
18
18
18
18
18
18
D0
60
ENDCHAR

STARTCHAR k
ENCODING 107
SWIDTH 625 0
DWIDTH 11 0
BBX 9 13 1 0
BITMAP
E000
6000
6000
6000
6780
6300
6400
6800
7C00
6600
6600
6300
F780
ENDCHAR

STARTCHAR l
ENCODING 108
SWIDTH 333 0
DWIDTH 6 0
BBX 4 13 1 0
BITMAP
E0
60
60
60
60
60
60
60
60
60
60
60
F0
ENDCHAR

STARTCHAR m
ENCODING 109
SWIDTH 938 0
DWIDTH 16 0
BBX 14 9 1 0
BITMAP
EE70
7398
6318
6318
6318
6318
6318
6318
F7BC
ENDCHAR

STARTCHAR n
ENCODING 110
SWIDTH 646 0
DWIDTH 11 0
BBX 9 9 1 0
BITMAP
EE00
7300
6300
6300
6300
6300
6300
6300
F780
ENDCHAR

STARTCHAR o
ENCODING 111
SWIDTH 562 0
DWIDTH 10 0
BBX 8 9 1 0
BITMAP
3C
66
C3
C3
C3
C3
C3
66
3C
ENDCHAR

STARTCHAR p
ENCODING 112
SWIDTH 594 0
DWIDTH 11 0
BBX 9 12 1 -3
BITMAP
EE00
7300
6180
6180
6180
6180
6180
7300
6E00
6000
6000
F000
ENDCHAR

STARTCHAR q
ENCODING 113
SWIDTH 594 0
DWIDTH 10 0
BBX 9 12 1 -3
BITMAP
3900
6700
C300
C300
C300
C300
C300
6700
3B00
0300
0300
0780
ENDCHAR

STARTCHAR r
ENCODING 114
SWIDTH 490 0
DWIDTH 8 0
BBX 7 9 1 0
BITMAP
CC
76
62
60
60
60
60
60
F0
ENDCHAR

STARTCHAR s
ENCODING 115
SWIDTH 479 0
DWIDTH 8 0
BBX 6 9 1 0
BITMAP
78
8C
84
E0
78
1C
84
C4
78
ENDCHAR

STARTCHAR t
ENCODING 116
SWIDTH 375 0
DWIDTH 6 0
BBX 5 13 1 0
BITMAP
20
20
20
60
F8
60
60
60
60
60
60
68
30
ENDCHAR

STARTCHAR u
ENCODING 117
SWIDTH 646 0
DWIDTH 11 0
BBX 9 9 1 0
BITMAP
E700
6300
6300
6300
6300
6300
6300
6700
3B80
ENDCHAR

STARTCHAR v
ENCODING 118
SWIDTH 594 0
DWIDTH 10 0
BBX 10 9 0 0
BITMAP
F1C0
6080
6080
3100
3100
1A00
1A00
0C00
0C00
ENDCHAR

STARTCHAR w
ENCODING 119
SWIDTH 833 0
DWIDTH 13 0
BBX 13 9 0 0
BITMAP
F7B8
6310
6310
35A0
35A0
35A0
18C0
18C0
0880
ENDCHAR

STARTCHAR x
ENCODING 120
SWIDTH 583 0
DWIDTH 9 0
BBX 9 9 0 0
BITMAP
F780
6300
3200
1C00
0800
1C00
2600
6300
F780
ENDCHAR

STARTCHAR y
ENCODING 121
SWIDTH 594 0
DWIDTH 10 0
BBX 10 12 0 -3
BITMAP
F1C0
6080
6080
3100
3100
1A00
1A00
0C00
0C00
C800
C800
7000
ENDCHAR

STARTCHAR z
ENCODING 122
SWIDTH 479 0
DWIDTH 9 0
BBX 7 9 1 0
BITMAP
FE
C6
8C
18
18
30
62
66
FE
ENDCHAR

STARTCHAR braceleft
ENCODING 123
SWIDTH 479 0
DWIDTH 8 0
BBX 4 17 2 -3
BITMAP
10
20
20
60
60
60
20
40
80
40
20
60
60
60
20
20
10
ENDCHAR

STARTCHAR bar
ENCODING 124
SWIDTH 510 0
DWIDTH 9 0
BBX 2 14 4 0
BITMAP
C0
C0
C0
C0
C0
C0
C0
C0
C0
C0
C0
C0
C0
C0
ENDCHAR

STARTCHAR braceright
ENCODING 125
SWIDTH 479 0
DWIDTH 8 0
BBX 4 17 2 -3
BITMAP
80
40
40
60
60
60
40
20
10
20
40
60
60
60
40
40
80
ENDCHAR

STARTCHAR asciitilde
ENCODING 126
SWIDTH 667 0
DWIDTH 11 0
BBX 8 3 2 4
BITMAP
61
B9
8E
ENDCHAR

STARTCHAR space
ENCODING 160
SWIDTH 250 0
DWIDTH 5 0
BBX 0 0 0 0
BITMAP
ENDCHAR

STARTCHAR afii10023
ENCODING 161
SWIDTH 698 0
DWIDTH 12 0
BBX 11 16 0 0
BITMAP
3180
3180
0000
FFE0
3060
3020
3020
3100
3100
3F00
3100
3120
3020
3020
3060
FFE0
ENDCHAR

STARTCHAR afii10051
ENCODING 162
SWIDTH 875 0
DWIDTH 15 0
BBX 13 13 1 0
BITMAP
FFC0
CCC0
8C40
8C40
0C00
0DE0
0F30
0E18
0C18
0C18
0C18
0C50
3F60
ENDCHAR

STARTCHAR afii10052
ENCODING 163
SWIDTH 635 0
DWIDTH 11 0
BBX 10 17 1 0
BITMAP
0600
0C00
0800
0000
FFC0
30C0
3040
3040
3000
3000
3000
3000
3000
3000
3000
3000
FC00
ENDCHAR

STARTCHAR afii10053
ENCODING 164
SWIDTH 698 0
DWIDTH 12 0
BBX 10 13 1 0
BITMAP
0F80
30C0
6040
6040
C000
C000
FC00
C000
C000
6040
6040
3080
0F00
ENDCHAR

STARTCHAR afii10054
ENCODING 165
SWIDTH 594 0
DWIDTH 10 0
BBX 9 13 1 0
BITMAP
3F00
6180
C080
C080
E000
7800
1E00
0700
0380
8180
8180
C300
7E00
ENDCHAR

STARTCHAR afii10055
ENCODING 166
SWIDTH 385 0
DWIDTH 7 0
BBX 6 13 1 0
BITMAP
FC
30
30
30
30
30
30
30
30
30
30
30
FC
ENDCHAR

STARTCHAR afii10056
ENCODING 167
SWIDTH 385 0
DWIDTH 7 0
BBX 6 16 1 0
BITMAP
CC
CC
00
FC
30
30
30
30
30
30
30
30
30
30
30
FC
ENDCHAR

STARTCHAR afii10057
ENCODING 168
SWIDTH 573 0
DWIDTH 10 0
BBX 10 13 0 0
BITMAP
0FC0
0300
0300
0300
0300
0300
0300
0300
6300
E300
C200
4600
3C00
ENDCHAR

STARTCHAR afii10058
ENCODING 169
SWIDTH 1092 0
DWIDTH 19 0
BBX 18 13 1 0
BITMAP
3FF800
0C6000
086000
086000
086000
086000
087E00
186180
1060C0
1060C0
D060C0
D06180
61FE00
ENDCHAR

STARTCHAR afii10059
ENCODING 170
SWIDTH 1089 0
DWIDTH 19 0
BBX 18 13 1 0
BITMAP
FDF800
306000
306000
306000
306000
306000
3FFE00
306180
3060C0
3060C0
3060C0
306180
FDFE00
ENDCHAR

STARTCHAR afii10060
ENCODING 171
SWIDTH 885 0
DWIDTH 15 0
BBX 14 13 1 0
BITMAP
FFC0
CCC0
8C40
8C40
0C00
0DE0
0F30
0E30
0C30
0C30
0C30
0C30
3F7C
ENDCHAR

STARTCHAR afii10061
ENCODING 172
SWIDTH 759 0
DWIDTH 13 0
BBX 12 17 1 0
BITMAP
0300
0200
0400
0000
FC70
30B0
3080
3100
3100
3200
3F00
3180
3180
30C0
30C0
3060
FC70
ENDCHAR

STARTCHAR hyphen
ENCODING 173
SWIDTH 281 0
DWIDTH 5 0
BBX 3 1 1 4
BITMAP
E0
ENDCHAR

STARTCHAR afii10062
ENCODING 174
SWIDTH 732 0
DWIDTH 12 0
BBX 13 17 0 0
BITMAP
0CC0
0CC0
0780
0000
F8F8
3020
3020
1840
1840
1840
0C80
0C80
0700
0700
3200
3600
1C00
ENDCHAR

STARTCHAR afii10145
ENCODING 175
SWIDTH 823 0
DWIDTH 14 0
BBX 14 16 0 -3
BITMAP
FCFC
3030
3030
3030
3030
3030
3030
3030
3030
3030
3030
3030
FFFC
0300
0300
0300
ENDCHAR

STARTCHAR afii10017
ENCODING 176
SWIDTH 792 0
DWIDTH 14 0
BBX 13 13 1 0
BITMAP
0100
0300
0380
0580
04C0
08C0
08C0
1060
1FE0
2060
2030
6030
F078
ENDCHAR

STARTCHAR afii10018
ENCODING 177
SWIDTH 701 0
DWIDTH 12 0
BBX 11 13 1 0
BITMAP
FFC0
30C0
3040
3040
3000
3000
3F80
30C0
3060
3060
3060
30C0
FF80
ENDCHAR

STARTCHAR afii10019
ENCODING 178
SWIDTH 719 0
DWIDTH 12 0
BBX 12 13 0 0
BITMAP
FF80
30C0
3060
3060
3060
30C0
3FC0
3060
3030
3030
3030
3060
FFC0
ENDCHAR

STARTCHAR afii10020
ENCODING 179
SWIDTH 635 0
DWIDTH 11 0
BBX 10 13 1 0
BITMAP
FFC0
30C0
3040
3040
3000
3000
3000
3000
3000
3000
3000
3000
FC00
ENDCHAR

STARTCHAR afii10021
ENCODING 180
SWIDTH 760 0
DWIDTH 13 0
BBX 13 16 0 -3
BITMAP
3FF8
0C60
0860
0860
0860
0860
0860
1860
1060
1060
3060
6060
FFF8
C018
8008
8008
ENDCHAR

STARTCHAR afii10022
ENCODING 181
SWIDTH 698 0
DWIDTH 12 0
BBX 11 13 0 0
BITMAP
FFE0
3060
3020
3020
3120
3100
3F00
3100
3120
3020
3020
3060
FFE0
ENDCHAR

STARTCHAR afii10024
ENCODING 182
SWIDTH 1115 0
DWIDTH 19 0
BBX 18 13 1 0
BITMAP
E3F1C0
D0C2C0
10C200
08C400
08C400
04C800
0FFC00
18C600
18C600
30C300
30C300
60C180
E3F1C0
ENDCHAR

STARTCHAR afii10025
ENCODING 183
SWIDTH 601 0
DWIDTH 10 0
BBX 9 13 1 0
BITMAP
3E00
6300
4180
4180
0180
0300
0E00
0300
0180
0180
8180
4300
3E00
ENDCHAR

STARTCHAR afii10026
ENCODING 184
SWIDTH 823 0
DWIDTH 14 0
BBX 14 13 0 0
BITMAP
FCFC
3030
3070
3070
30B0
3130
3330
3230
3430
3830
3830
3030
FCFC
ENDCHAR

STARTCHAR afii10027
ENCODING 185
SWIDTH 823 0
DWIDTH 14 0
BBX 14 17 0 0
BITMAP
0CC0
0CC0
0780
0000
FCFC
3030
3070
3070
30B0
3130
3330
3230
3430
3830
3830
3030
FCFC
ENDCHAR

STARTCHAR afii10028
ENCODING 186
SWIDTH 759 0
DWIDTH 13 0
BBX 12 13 1 0
BITMAP
FC70
30B0
3080
3100
3100
3200
3F00
3180
3180
30C0
30C0
3060
FC70
ENDCHAR

STARTCHAR afii10029
ENCODING 187
SWIDTH 789 0
DWIDTH 13 0
BBX 13 13 0 0
BITMAP
3FF8
0C60
0860
0860
0860
0860
0860
1860
1060
1060
D060
D060
61F8
ENDCHAR

STARTCHAR afii10030
ENCODING 188
SWIDTH 979 0
DWIDTH 17 0
BBX 16 13 1 0
BITMAP
F81F
381C
2C2C
2C2C
2C2C
264C
264C
264C
234C
238C
238C
210C
F93F
ENDCHAR

STARTCHAR afii10031
ENCODING 189
SWIDTH 812 0
DWIDTH 14 0
BBX 14 13 0 0
BITMAP
FCFC
3030
3030
3030
3030
3030
3FF0
3030
3030
3030
3030
3030
FCFC
ENDCHAR

STARTCHAR afii10032
ENCODING 190
SWIDTH 767 0
DWIDTH 13 0
BBX 12 13 1 0
BITMAP
0F00
30C0
6060
6060
C030
C030
C030
C030
C030
6060
6060
30C0
0F00
ENDCHAR

STARTCHAR afii10033
ENCODING 191
SWIDTH 823 0
DWIDTH 14 0
BBX 14 13 0 0
BITMAP
FFFC
3030
3030
3030
3030
3030
3030
3030
3030
3030
3030
3030
FCFC
ENDCHAR

STARTCHAR afii10034
ENCODING 192
SWIDTH 662 0
DWIDTH 11 0
BBX 11 13 0 0
BITMAP
FF80
30C0
3060
3060
3060
30C0
3F80
3000
3000
3000
3000
3000
FC00
ENDCHAR

STARTCHAR afii10035
ENCODING 193
SWIDTH 694 0
DWIDTH 12 0
BBX 10 13 1 0
BITMAP
0F80
30C0
6040
6040
C000
C000
C000
C000
C000
6040
6040
3080
0F00
ENDCHAR

STARTCHAR afii10036
ENCODING 194
SWIDTH 688 0
DWIDTH 12 0
BBX 10 13 1 0
BITMAP
FFC0
CCC0
8C40
8C40
0C00
0C00
0C00
0C00
0C00
0C00
0C00
0C00
3F00
ENDCHAR

STARTCHAR afii10037
ENCODING 195
SWIDTH 732 0
DWIDTH 12 0
BBX 13 13 0 0
BITMAP
F8F8
3020
3020
1840
1840
1840
0C80
0C80
0700
0700
3200
3600
1C00
ENDCHAR

STARTCHAR afii10038
ENCODING 196
SWIDTH 799 0
DWIDTH 14 0
BBX 12 13 1 0
BITMAP
1F80
0600
1F80
6660
C630
C630
C630
C630
C630
6660
1F80
0600
1F80
ENDCHAR

STARTCHAR afii10039
ENCODING 197
SWIDTH 729 0
DWIDTH 12 0
BBX 12 13 0 0
BITMAP
F9F0
6060
3040
1880
1900
0E00
0600
0700
0980
1180
20C0
6060
F9F0
ENDCHAR

STARTCHAR afii10040
ENCODING 198
SWIDTH 823 0
DWIDTH 14 0
BBX 14 16 0 -3
BITMAP
FCFC
3030
3030
3030
3030
3030
3030
3030
3030
3030
3030
3030
FFFC
000C
0004
0004
ENDCHAR

STARTCHAR afii10041
ENCODING 199
SWIDTH 761 0
DWIDTH 13 0
BBX 13 13 0 0
BITMAP
FDF8
3060
3060
3060
3060
3060
18E0
0F60
0060
0060
0060
0060
01F8
ENDCHAR

STARTCHAR afii10042
ENCODING 200
SWIDTH 1073 0
DWIDTH 18 0
BBX 18 13 0 0
BITMAP
FBF7C0
30C300
30C300
30C300
30C300
30C300
30C300
30C300
30C300
30C300
30C300
30C300
FFFFC0
ENDCHAR

STARTCHAR afii10043
ENCODING 201
SWIDTH 1073 0
DWIDTH 18 0
BBX 18 16 0 -3
BITMAP
FBF7C0
30C300
30C300
30C300
30C300
30C300
30C300
30C300
30C300
30C300
30C300
30C300
FFFFC0
0000C0
000040
000040
ENDCHAR

STARTCHAR afii10044
ENCODING 202
SWIDTH 879 0
DWIDTH 15 0
BBX 13 13 1 0
BITMAP
FF00
8C00
8C00
8C00
8C00
0C00
0FC0
0C30
0C18
0C18
0C18
0C30
3FC0
ENDCHAR

STARTCHAR afii10045
ENCODING 203
SWIDTH 1042 0
DWIDTH 17 0
BBX 17 13 0 0
BITMAP
FC1F80
300600
300600
300600
300600
300600
3F0600
30C600
306600
306600
306600
30C600
FF1F80
ENDCHAR

STARTCHAR afii10046
ENCODING 204
SWIDTH 704 0
DWIDTH 12 0
BBX 11 13 1 0
BITMAP
FC00
3000
3000
3000
3000
3000
3F00
30C0
3060
3060
3060
30C0
FF00
ENDCHAR

STARTCHAR afii10047
ENCODING 205
SWIDTH 698 0
DWIDTH 12 0
BBX 10 13 1 0
BITMAP
7C00
C300
8180
8180
00C0
00C0
1FC0
00C0
00C0
8180
8180
4300
3C00
ENDCHAR

STARTCHAR afii10048
ENCODING 206
SWIDTH 1104 0
DWIDTH 19 0
BBX 19 13 0 0
BITMAP
FC1E00
306180
30C0C0
30C0C0
318060
318060
3F8060
318060
318060
30C0C0
30C0C0
306180
FC1E00
ENDCHAR

STARTCHAR afii10049
ENCODING 207
SWIDTH 729 0
DWIDTH 12 0
BBX 12 13 0 0
BITMAP
1FF0
30C0
60C0
60C0
60C0
30C0
1FC0
18C0
18C0
30C0
30C0
60C0
E3F0
ENDCHAR

STARTCHAR afii10065
ENCODING 208
SWIDTH 563 0
DWIDTH 10 0
BBX 9 9 1 0
BITMAP
3E00
6300
6300
0700
3B00
6300
C300
C700
7980
ENDCHAR

STARTCHAR afii10066
ENCODING 209
SWIDTH 567 0
DWIDTH 10 0
BBX 9 13 1 0
BITMAP
0080
1F00
7000
4000
BC00
E600
C300
C300
C300
C300
C300
6600
3C00
ENDCHAR

STARTCHAR afii10067
ENCODING 210
SWIDTH 559 0
DWIDTH 10 0
BBX 8 9 1 0
BITMAP
FE
63
63
63
7E
63
63
63
FE
ENDCHAR

STARTCHAR afii10068
ENCODING 211
SWIDTH 504 0
DWIDTH 9 0
BBX 8 9 1 0
BITMAP
FF
63
61
60
60
60
60
60
F0
ENDCHAR

STARTCHAR afii10069
ENCODING 212
SWIDTH 616 0
DWIDTH 10 0
BBX 10 11 0 -2
BITMAP
3FC0
1980
1180
1180
1180
2180
2180
4180
FFC0
8040
8040
ENDCHAR

STARTCHAR afii10070
ENCODING 213
SWIDTH 513 0
DWIDTH 9 0
BBX 7 9 1 0
BITMAP
38
64
C6
C6
FE
C0
C0
62
3C
ENDCHAR

STARTCHAR afii10072
ENCODING 214
SWIDTH 844 0
DWIDTH 14 0
BBX 14 9 0 0
BITMAP
E79C
D32C
1320
0B40
1FE0
3330
3330
6318
E79C
ENDCHAR

STARTCHAR afii10073
ENCODING 215
SWIDTH 479 0
DWIDTH 9 0
BBX 7 9 1 0
BITMAP
7C
C6
86
06
3C
06
C6
C6
7C
ENDCHAR

STARTCHAR afii10074
ENCODING 216
SWIDTH 646 0
DWIDTH 11 0
BBX 9 9 1 0
BITMAP
F780
6300
6300
6700
6B00
6B00
7300
6300
F780
ENDCHAR

STARTCHAR afii10075
ENCODING 217
SWIDTH 646 0
DWIDTH 11 0
BBX 9 13 1 0
BITMAP
3300
3300
1E00
0000
F780
6300
6300
6700
6B00
6B00
7300
6300
F780
ENDCHAR

STARTCHAR afii10076
ENCODING 218
SWIDTH 602 0
DWIDTH 10 0
BBX 9 9 1 0
BITMAP
F380
6580
6400
6800
7C00
6600
6600
6300
F380
ENDCHAR

STARTCHAR afii10077
ENCODING 219
SWIDTH 639 0
DWIDTH 11 0
BBX 10 9 0 0
BITMAP
1FC0
0980
0980
0980
0980
1180
D180
D180
63C0
ENDCHAR

STARTCHAR afii10078
ENCODING 220
SWIDTH 784 0
DWIDTH 13 0
BBX 11 9 1 0
BITMAP
E0E0
70C0
71C0
59C0
5AC0
5AC0
4EC0
4CC0
EDE0
ENDCHAR

STARTCHAR afii10079
ENCODING 221
SWIDTH 646 0
DWIDTH 11 0
BBX 9 9 1 0
BITMAP
F780
6300
6300
6300
7F00
6300
6300
6300
F780
ENDCHAR

STARTCHAR afii10080
ENCODING 222
SWIDTH 548 0
DWIDTH 10 0
BBX 8 9 1 0
BITMAP
3C
66
C3
C3
C3
C3
C3
66
3C
ENDCHAR

STARTCHAR afii10081
ENCODING 223
SWIDTH 646 0
DWIDTH 11 0
BBX 9 9 1 0
BITMAP
FF80
6300
6300
6300
6300
6300
6300
6300
F780
ENDCHAR

STARTCHAR afii10082
ENCODING 224
SWIDTH 594 0
DWIDTH 11 0
BBX 9 12 1 -3
BITMAP
EE00
7300
6180
6180
6180
6180
6180
7300
6E00
6000
6000
F000
ENDCHAR

STARTCHAR afii10083
ENCODING 225
SWIDTH 500 0
DWIDTH 9 0
BBX 7 9 1 0
BITMAP
3C
66
C2
C0
C0
C0
C2
62
3C
ENDCHAR

STARTCHAR afii10084
ENCODING 226
SWIDTH 552 0
DWIDTH 9 0
BBX 8 9 1 0
BITMAP
FF
99
99
18
18
18
18
18
3C
ENDCHAR

STARTCHAR afii10085
ENCODING 227
SWIDTH 573 0
DWIDTH 10 0
BBX 10 12 0 -3
BITMAP
F1C0
6080
6080
3100
3100
1A00
1A00
0C00
0C00
C800
C800
7000
ENDCHAR

STARTCHAR afii10086
ENCODING 228
SWIDTH 746 0
DWIDTH 14 0
BBX 12 16 1 -3
BITMAP
0F00
0600
0600
0600
36C0
6F60
C630
C630
C630
C630
C630
6F60
36C0
0600
0600
0F00
ENDCHAR

STARTCHAR afii10087
ENCODING 229
SWIDTH 583 0
DWIDTH 9 0
BBX 9 9 0 0
BITMAP
F780
6300
3200
1C00
0800
1C00
2600
6300
F780
ENDCHAR

STARTCHAR afii10088
ENCODING 230
SWIDTH 646 0
DWIDTH 11 0
BBX 9 11 1 -2
BITMAP
F780
6300
6300
6300
6300
6300
6300
6300
FF80
0180
0080
ENDCHAR

STARTCHAR afii10089
ENCODING 231
SWIDTH 625 0
DWIDTH 11 0
BBX 9 9 1 0
BITMAP
F780
6300
6300
6300
6700
3B00
0300
0300
0780
ENDCHAR

STARTCHAR afii10090
ENCODING 232
SWIDTH 927 0
DWIDTH 16 0
BBX 14 9 1 0
BITMAP
F7BC
6318
6318
6318
6318
6318
6318
6318
FFFC
ENDCHAR

STARTCHAR afii10091
ENCODING 233
SWIDTH 927 0
DWIDTH 16 0
BBX 14 11 1 -2
BITMAP
F7BC
6318
6318
6318
6318
6318
6318
6318
FFFC
000C
0004
ENDCHAR

STARTCHAR afii10092
ENCODING 234
SWIDTH 695 0
DWIDTH 12 0
BBX 10 9 1 0
BITMAP
FC00
9800
9800
1800
1F80
18C0
18C0
18C0
3F80
ENDCHAR

STARTCHAR afii10093
ENCODING 235
SWIDTH 833 0
DWIDTH 14 0
BBX 12 9 1 0
BITMAP
F0F0
6060
6060
6060
7E60
6360
6360
6360
FEF0
ENDCHAR

STARTCHAR afii10094
ENCODING 236
SWIDTH 565 0
DWIDTH 10 0
BBX 8 9 1 0
BITMAP
F0
60
60
60
7E
63
63
63
FE
ENDCHAR

STARTCHAR afii10095
ENCODING 237
SWIDTH 490 0
DWIDTH 8 0
BBX 7 9 1 0
BITMAP
78
CC
C6
06
3E
06
86
CC
78
ENDCHAR

STARTCHAR afii10096
ENCODING 238
SWIDTH 833 0
DWIDTH 15 0
BBX 13 9 1 0
BITMAP
F1E0
6330
6618
6618
7E18
6618
6618
6330
F1E0
ENDCHAR

STARTCHAR afii10097
ENCODING 239
SWIDTH 577 0
DWIDTH 10 0
BBX 9 9 0 0
BITMAP
3F80
6300
6300
6300
3F00
3300
6300
6300
E780
ENDCHAR

STARTCHAR afii61352
ENCODING 240
SWIDTH 1053 0
DWIDTH 18 0
BBX 17 13 1 0
BITMAP
781800
183C00
1C2800
1C2000
162700
172D80
132880
13A880
11AD80
10E700
D0E000
D06000
606700
ENDCHAR

STARTCHAR afii10071
ENCODING 241
SWIDTH 513 0
DWIDTH 9 0
BBX 7 12 1 0
BITMAP
66
66
00
38
64
C6
C6
FE
C0
C0
62
3C
ENDCHAR

STARTCHAR afii10099
ENCODING 242
SWIDTH 574 0
DWIDTH 11 0
BBX 10 13 0 0
BITMAP
7000
3000
FF00
3000
3700
3980
3180
3180
3180
3180
3180
3180
7BC0
ENDCHAR

STARTCHAR afii10100
ENCODING 243
SWIDTH 504 0
DWIDTH 9 0
BBX 8 13 1 0
BITMAP
0C
18
20
00
FF
63
61
60
60
60
60
60
F0
ENDCHAR

STARTCHAR afii10101
ENCODING 244
SWIDTH 500 0
DWIDTH 9 0
BBX 7 9 1 0
BITMAP
3C
66
C2
C0
F8
C0
C2
62
3C
ENDCHAR

STARTCHAR afii10102
ENCODING 245
SWIDTH 458 0
DWIDTH 8 0
BBX 6 9 1 0
BITMAP
78
8C
84
E0
78
1C
84
C4
78
ENDCHAR

STARTCHAR afii10103
ENCODING 246
SWIDTH 354 0
DWIDTH 6 0
BBX 4 13 1 0
BITMAP
60
60
00
00
E0
60
60
60
60
60
60
60
F0
ENDCHAR

STARTCHAR afii10104
ENCODING 247
SWIDTH 354 0
DWIDTH 6 0
BBX 6 12 0 0
BITMAP
CC
CC
00
70
30
30
30
30
30
30
30
78
ENDCHAR

STARTCHAR afii10105
ENCODING 248
SWIDTH 323 0
DWIDTH 5 0
BBX 5 16 -1 -3
BITMAP
18
18
00
00
38
18
18
18
18
18
18
18
18
18
D0
60
ENDCHAR

STARTCHAR afii10106
ENCODING 249
SWIDTH 887 0
DWIDTH 15 0
BBX 15 9 0 0
BITMAP
1FE0
08C0
08C0
08C0
08FC
10C6
D0C6
D0C6
61FC
ENDCHAR

STARTCHAR afii10107
ENCODING 250
SWIDTH 888 0
DWIDTH 15 0
BBX 13 9 1 0
BITMAP
F780
6300
6300
6300
7FF0
6318
6318
6318
F7F0
ENDCHAR

STARTCHAR afii10108
ENCODING 251
SWIDTH 635 0
DWIDTH 11 0
BBX 9 13 1 0
BITMAP
E000
6000
FE00
6000
6E00
7300
6300
6300
6300
6300
6300
6300
F780
ENDCHAR

STARTCHAR afii10109
ENCODING 252
SWIDTH 602 0
DWIDTH 10 0
BBX 9 13 1 0
BITMAP
0C00
0800
1000
0000
F380
6580
6400
6800
7C00
6600
6600
6300
F380
ENDCHAR

STARTCHAR section
ENCODING 253
SWIDTH 490 0
DWIDTH 8 0
BBX 6 16 1 -3
BITMAP
78
CC
8C
C0
60
70
98
8C
C4
64
38
18
0C
C4
CC
78
ENDCHAR

STARTCHAR afii10110
ENCODING 254
SWIDTH 573 0
DWIDTH 10 0
BBX 10 16 0 -3
BITMAP
3300
3300
1E00
0000
F3C0
6080
6080
3100
3100
1A00
1A00
0C00
0C00
C800
C800
7000
ENDCHAR

STARTCHAR afii10193
ENCODING 255
SWIDTH 646 0
DWIDTH 11 0
BBX 9 12 1 -3
BITMAP
F780
6300
6300
6300
6300
6300
6300
6300
FF80
0C00
0C00
0C00
ENDCHAR
ENDFONT
